<svg xmlns="http://www.w3.org/2000/svg" width="512" height="512" viewBox="0 0 512 512" fill="none">
  <rect width="512" height="512" rx="128" fill="#2563EB"/>
  <rect x="64" y="64" width="384" height="384" rx="96" fill="#EFF6FF"/>
  <path d="M145 339L210.5 168H245.5L311 339H274.9L261.6 301.6H193.5L178.8 339H145ZM202.8 275.1H252.2L227.7 207.2L202.8 275.1Z" fill="#1D4ED8"/>
  <path d="M329.7 168H368.5C388.6 168 404.1 172.5 414.6 181.9C425 191.2 430.2 204.5 430.2 221.9C430.2 233.9 427.3 244.4 421.4 253.4C415.5 262.3 407 268.8 395.9 272.7L433.7 339H393.3L361 280.3H363.8H362V339H329.7V168ZM362 253.2H368.2C379.8 253.2 388.3 250.5 393.9 245.1C399.4 239.8 402.2 232 402.2 221.9C402.2 211.9 399.4 204.6 393.8 199.8C388.1 195 379.7 192.6 368.8 192.6H362V253.2Z" fill="#1D4ED8"/>
</svg>
