<svg xmlns="http://www.w3.org/2000/svg" width="192" height="192" viewBox="0 0 192 192" fill="none">
  <rect width="192" height="192" rx="48" fill="#2563EB"/>
  <rect x="24" y="24" width="144" height="144" rx="36" fill="#EFF6FF"/>
  <path d="M55 128L79.5 64H92.5L117 128H103.5L98.5 114H73L67.5 128H55ZM76.5 104H95L85.8 78.6L76.5 104Z" fill="#1D4ED8"/>
  <path d="M124 64H138.5C146.1 64 151.9 65.7 155.8 69.2C159.7 72.7 161.7 77.7 161.7 84.2C161.7 88.7 160.6 92.6 158.4 96C156.2 99.3 153 101.7 148.8 103.2L163 128H147.8L135.7 106.1H136.8H136.1V128H124V64ZM136.1 95.9H138.4C142.7 95.9 145.9 94.9 148 92.9C150.1 90.9 151.1 88 151.1 84.2C151.1 80.4 150.1 77.7 148 76C145.9 74.2 142.8 73.3 138.6 73.3H136.1V95.9Z" fill="#1D4ED8"/>
</svg>
